<?xml version="1.0" encoding="UTF-8" standalone="no"?>
<svg
   viewBox="0 0 15 15"
   version="1.1"
   id="svg4"
   sodipodi:docname="bicycle_parking_shed_11.svg"
   inkscape:version="1.1.1 (3bf5ae0d25, 2021-09-20)"
   xmlns:inkscape="http://www.inkscape.org/namespaces/inkscape"
   xmlns:sodipodi="http://sodipodi.sourceforge.net/DTD/sodipodi-0.dtd"
   xmlns="http://www.w3.org/2000/svg"
   xmlns:svg="http://www.w3.org/2000/svg">
  <defs
     id="defs8" />
  <sodipodi:namedview
     id="namedview6"
     pagecolor="#ffffff"
     bordercolor="#666666"
     borderopacity="1.0"
     inkscape:pageshadow="2"
     inkscape:pageopacity="0.0"
     inkscape:pagecheckerboard="0"
     showgrid="false"
     inkscape:zoom="53.866667"
     inkscape:cx="3.8521039"
     inkscape:cy="7.4814356"
     inkscape:window-width="3072"
     inkscape:window-height="1659"
     inkscape:window-x="0"
     inkscape:window-y="0"
     inkscape:window-maximized="1"
     inkscape:current-layer="layer3" />
  <g
     inkscape:groupmode="layer"
     id="layer3"
     inkscape:label="house"
     style="display:inline">
    <path
       id="path2"
       style="fill:#444444;stroke-width:0.863415"
       d="M 7.6269531,1.2597656 1.3671875,4.8320312 V 13.761719 H 13.888672 V 4.8320312 Z m 0.6894531,4.3378906 h 0.7578126 c 0.1831277,0 0.341704,0.1318862 0.375,0.3066407 v 0.068359 1.3554688 l 0.5585932,0.5585938 c 0.957258,0.091538 1.712891,0.8891233 1.712891,1.8710937 0,1.0402048 -0.848174,1.8886718 -1.8886718,1.8886718 -1.0404987,0 -1.8984375,-0.848467 -1.8984374,-1.8886718 0,-0.7239938 0.4162978,-1.3556503 1.015625,-1.671875 l 0.125,-0.058594 L 8.7753906,7.71875 6.9023438,8.7851562 c 0.1748038,0.2829423 0.2832031,0.6148223 0.2832031,0.9726563 0,1.0402045 -0.8579391,1.8886715 -1.8984375,1.8886715 -1.0404983,0 -1.8886719,-0.848467 -1.8886719,-1.8886715 0,-1.0402231 0.8481736,-1.8886719 1.8886719,-1.8886719 0.1082118,0 0.2087059,0.00875 0.3085937,0.025391 L 5.7363281,7.9277344 5.4121094,7.1113281 H 5.2363281 c -0.4827913,0.00832 -0.514367,-0.673152 -0.089844,-0.7480469 l 0.089844,-0.00781 h 1.5332031 c 0.4827913,-0.00832 0.5065544,0.673152 0.082031,0.7480468 l -0.082031,0.00781 H 6.2285156 L 6.6191406,8.078125 8.6914062,6.8964844 V 6.3554688 h -0.375 c -0.4827912,0.00832 -0.5065544,-0.6751053 -0.082031,-0.75 z M 5.2871094,8.6269531 c -0.632623,0 -1.1328125,0.4984054 -1.1328125,1.1308594 0,0.6324445 0.5001895,1.1328125 1.1328125,1.1328125 0.632623,0 1.140625,-0.500368 1.140625,-1.1328125 0,-0.632454 -0.508002,-1.1308594 -1.140625,-1.1308594 z m 4.5449218,0 c -0.6326233,0 -1.140625,0.4984054 -1.140625,1.1308594 0,0.6324445 0.5080017,1.1328125 1.140625,1.1328125 0.6326228,0 1.1328128,-0.500368 1.1328128,-1.1328125 0,-0.632454 -0.50019,-1.1308594 -1.1328128,-1.1308594 z" />
    <path
       style="fill:#444444;stroke:none;stroke-width:0.0185644"
       d="M 1.3747258,9.2961014 1.3756893,4.8360148 4.4852506,3.0631188 C 6.1955094,2.088026 7.6050928,1.2878688 7.6176584,1.2849917 7.6302239,1.2821147 9.0436839,2.080174 10.758681,3.0584569 l 3.118175,1.7786961 0.0047,4.4595176 0.0047,4.4595174 H 7.6299885 1.3737624 Z M 5.5693069,11.631306 C 5.9835818,11.56814 6.3454271,11.38533 6.6407734,11.089984 6.7841667,10.94659 6.9522217,10.705256 7.0279986,10.533911 7.2521389,10.027089 7.2409086,9.4338363 6.9978139,8.9393641 6.9578257,8.8580255 6.931238,8.7860754 6.9387298,8.7794751 c 0.020059,-0.017671 1.8182167,-1.0381385 1.829297,-1.0381385 0.011939,0 0.2616828,0.2575634 0.2688733,0.2772921 0.00294,0.00806 -0.021351,0.02571 -0.053975,0.039223 -0.1074199,0.044495 -0.3374542,0.2055173 -0.4591757,0.32142 -0.7543412,0.7182803 -0.7976513,1.9038433 -0.096886,2.6521313 0.1705342,0.182098 0.308529,0.289419 0.509848,0.396514 0.3000941,0.159641 0.5499503,0.220571 0.9023965,0.220059 0.3235681,-4.69e-4 0.5557871,-0.05455 0.8428661,-0.196278 0.354558,-0.175046 0.663016,-0.483339 0.842618,-0.842168 0.508781,-1.016494 0.02045,-2.2392192 -1.048815,-2.626125 -0.08644,-0.031279 -0.224536,-0.068561 -0.306874,-0.08285 L 10.0192,7.8745759 9.7342284,7.5900497 9.4492574,7.3055235 V 6.570111 c 0,-0.7333316 -1.114e-4,-0.7355889 -0.042044,-0.7978021 C 9.3840885,5.7379945 9.3290747,5.684547 9.2849602,5.6535364 L 9.2047518,5.5971534 H 8.7004576 c -0.475387,0 -0.5085509,0.00222 -0.5785517,0.038782 -0.2225852,0.1162483 -0.2634631,0.4702019 -0.07356,0.6369392 0.086936,0.076331 0.1678123,0.094475 0.4216415,0.094596 l 0.2181312,1.036e-4 v 0.258597 0.2585969 L 7.6638714,7.4699625 C 7.1005355,7.7918194 6.6335847,8.0514243 6.6262032,8.0468623 6.6149554,8.0399108 6.2561881,7.1609355 6.2561881,7.1403302 c 0,-0.00378 0.1399288,-0.010673 0.3109529,-0.015322 0.2723167,-0.0074 0.3206226,-0.013444 0.3887761,-0.048614 0.2717846,-0.1402531 0.2709122,-0.5682017 -0.00141,-0.6918683 -0.071159,-0.032315 -0.1363957,-0.034701 -0.9489373,-0.034701 -0.806878,0 -0.8781694,0.00256 -0.9475502,0.034079 -0.1477474,0.067112 -0.2224895,0.2073606 -0.2091068,0.392374 0.015786,0.2182411 0.141586,0.3246964 0.4083209,0.3455323 l 0.1542767,0.012051 0.1206683,0.3068371 c 0.066368,0.1687606 0.1355588,0.3440803 0.1537582,0.3895996 l 0.03309,0.082762 -0.042372,-0.011668 C 5.5580367,7.8687282 5.279792,7.8541394 5.1098387,7.8716736 4.4356097,7.9412342 3.8860437,8.3206312 3.5910609,8.9201732 3.4517034,9.2034124 3.4135509,9.3594083 3.4026364,9.690594 c -0.00727,0.2204785 -0.00227,0.301138 0.027634,0.445792 0.2049513,0.991535 1.1426194,1.646848 2.1390365,1.49492 z"
       id="path44" />
    <path
       style="fill:#444444;stroke:none;stroke-width:0.0185644"
       d="M 4.9959659,10.840769 C 4.621946,10.742817 4.3187399,10.441521 4.202798,10.052599 4.1579941,9.9023063 4.1578655,9.6095751 4.202537,9.4585395 4.2783502,9.2022133 4.4385524,8.9806899 4.6507483,8.8387646 4.8234573,8.7232498 4.9604261,8.6716748 5.162897,8.6459174 c 0.4286508,-0.054531 0.8632141,0.1607459 1.0952712,0.5425828 0.1085268,0.1785747 0.1551317,0.349654 0.1544793,0.567069 -0.00133,0.4430158 -0.2320954,0.8119058 -0.6261744,1.0009678 -0.093915,0.04506 -0.2150248,0.09098 -0.2691319,0.102048 -0.1470834,0.03009 -0.3671535,0.02257 -0.5213753,-0.01782 z"
       id="path83" />
    <path
       style="fill:#444444;stroke:none;stroke-width:0.0185644"
       d="M 9.5458238,10.842412 C 9.3420459,10.787161 9.1979096,10.702681 9.0387018,10.545179 8.8136453,10.322534 8.706414,10.069439 8.7069575,9.7621718 8.7075141,9.4475481 8.8107996,9.196968 9.0314454,8.9749342 9.2576012,8.7473558 9.5125465,8.6429309 9.8391089,8.6441175 c 0.1596349,5.801e-4 0.2218141,0.00959 0.3434401,0.049785 0.487757,0.1611804 0.796572,0.6189335 0.765267,1.1343451 -0.02755,0.4535404 -0.312081,0.8282984 -0.7515,0.9897984 -0.176892,0.06501 -0.4612861,0.07567 -0.6504922,0.02437 z"
       id="path122" />
    <path
       style="fill:none;stroke:none;stroke-width:0.0185644"
       d="m 1.3800055,12.72281 c 0.00678,-0.568358 0.012556,-2.575397 0.012843,-4.4600868 L 1.3933705,4.8360148 2.5670442,4.167926 C 3.2125646,3.8004772 4.325495,3.1668091 5.0402227,2.7597749 c 1.7158875,-0.9771904 2.5698119,-1.46027 2.5812722,-1.46027 0.027935,0 6.1926261,3.5046373 6.2314361,3.542582 0.0073,0.0071 0.01562,2.0156778 0.01856,4.4635065 l 0.0054,4.4505976 -6.2545858,-10e-7 -6.254586,-2e-6 z M 5.7456683,11.605427 C 6.4094096,11.439606 6.9614517,10.907621 7.1283007,10.27303 7.2460741,9.8250926 7.2076511,9.3900989 7.0105104,8.9395048 6.9514717,8.8045631 6.9485636,8.7899112 6.9769568,8.7704571 7.0113285,8.7469067 8.0569951,8.1512758 8.4899474,7.9086297 L 8.7651671,7.7543842 8.8937222,7.881954 c 0.070705,0.070164 0.128555,0.1323948 0.128555,0.1382918 0,0.0059 -0.038969,0.029655 -0.086599,0.052795 C 8.6051966,8.2336011 8.28911,8.5652728 8.1106603,8.9387376 7.9652853,9.2429827 7.9361513,9.3814789 7.9368792,9.7648514 c 6.665e-4,0.3512016 0.013587,0.4258646 0.1227418,0.7093176 0.2099896,0.5453 0.7466345,1.000319 1.3452456,1.140628 0.2223541,0.05212 0.6848544,0.04717 0.8983514,-0.0096 0.413392,-0.10994 0.7896,-0.360548 1.0399,-0.692721 0.280206,-0.371861 0.407392,-0.788327 0.38402,-1.2574616 C 11.70416,9.1937621 11.528607,8.7875094 11.207744,8.4530584 10.919665,8.1527806 10.574848,7.9682107 10.154703,7.8893988 L 10.034035,7.8667637 9.741646,7.5768543 9.4492574,7.286945 V 6.5545841 c 0,-0.8298102 0.00879,-0.7794941 -0.1585935,-0.9076793 l -0.080483,-0.061635 -0.5285273,0.00594 -0.528527,0.00594 -0.071304,0.056769 C 7.8732901,5.8199448 7.8728379,6.1706279 8.080978,6.308461 8.152343,6.35572 8.169954,6.358618 8.4226818,6.364681 l 0.2664608,0.00639 -0.00515,0.2527838 -0.00515,0.2527836 -0.4826732,0.2763587 C 7.9306923,7.3050007 7.4712245,7.5659253 7.175123,7.732836 6.6379346,8.0356457 6.6367069,8.0362147 6.613983,7.9928829 6.5699201,7.9088597 6.2723357,7.1620694 6.2799016,7.1545035 6.2841139,7.1502913 6.4078993,7.141928 6.5549803,7.1359188 6.8804684,7.1226202 6.9432957,7.108054 7.0358578,7.0244298 7.2175216,6.8603073 7.2045217,6.5356832 7.0111594,6.4076873 l -0.07462,-0.049395 -0.9087474,-0.00516 c -0.8970729,-0.00509 -0.9098058,-0.00464 -0.9911528,0.034737 -0.1259547,0.060974 -0.1806345,0.157221 -0.1880848,0.3310662 -0.011162,0.2604499 0.099679,0.3754091 0.3937602,0.4083889 0.079804,0.00895 0.1520001,0.023365 0.1604358,0.032034 0.016085,0.016529 0.2948953,0.7179889 0.2883999,0.7255856 C 5.6890903,7.887354 5.6127983,7.880084 5.5216118,7.868787 5.1124383,7.8181104 4.6745376,7.9111789 4.2976485,8.1289241 4.0883974,8.2498176 3.792765,8.5481522 3.6619351,8.7704483 3.4628757,9.1086746 3.3989729,9.3521604 3.3979249,9.7763944 c -7.89e-4,0.3192196 0.046469,0.5344546 0.1765849,0.8042526 0.1053535,0.218453 0.2087711,0.363842 0.3752079,0.527483 0.2802819,0.275575 0.6128503,0.451734 0.9867054,0.522653 0.1959026,0.03716 0.6110697,0.02415 0.8092452,-0.02536 z"
       id="path161" />
    <path
       style="fill:none;stroke-width:0.0185644"
       d="m 1.3876476,9.2979309 0.00468,-4.458257 1.0303218,-0.5879817 C 3.8955371,3.4111478 6.741708,1.7913317 7.2169546,1.5231514 L 7.6207904,1.295268 8.1266081,1.5787521 c 0.5504788,0.3085143 3.4436879,1.9532284 4.8637999,2.7649442 l 0.886448,0.5066808 V 9.3032825 13.756188 H 7.6299124 1.3829685 Z M 5.6179271,11.631168 C 6.4079838,11.492804 7.0323096,10.873158 7.1682107,10.092506 7.1891742,9.9720864 7.1951862,9.8551078 7.1888669,9.690594 7.1785125,9.4210312 7.1354266,9.2329295 7.0258706,8.978992 6.9854832,8.8853793 6.9524194,8.8031504 6.9523953,8.796261 c -7e-5,-0.019996 1.7812722,-1.0363601 1.8163889,-1.0363601 0.019482,0 0.2442108,0.2355511 0.2442108,0.255971 0,0.0073 -0.039554,0.034147 -0.087898,0.059655 C 8.6934281,8.1977652 8.3939548,8.4699995 8.2467173,8.6922029 8.13613,8.8590959 8.033367,9.0898227 7.9798154,9.2914603 c -0.043257,0.1628755 -0.049304,0.2209341 -0.049304,0.4733911 0,0.2526336 0.00603,0.3104016 0.049378,0.4733916 0.1785845,0.671419 0.7293763,1.206966 1.4162229,1.377022 0.1962943,0.0486 0.7102227,0.04378 0.9010807,-0.0085 0.354134,-0.09691 0.655582,-0.273748 0.897234,-0.526333 0.172358,-0.180156 0.262871,-0.310846 0.36228,-0.52309 C 11.947912,9.7221478 11.668459,8.7088884 10.903956,8.1906076 10.698193,8.0511142 10.408865,7.9353232 10.151824,7.8895991 L 10.018995,7.8659708 9.7395066,7.5855224 9.460018,7.3050742 9.4546377,6.5591907 c -0.00608,-0.842617 0.00442,-0.7834972 -0.1617043,-0.9109853 l -0.078617,-0.060334 -0.4951533,8.149e-4 c -0.6091615,0.001 -0.6583281,0.013527 -0.7487725,0.1907395 -0.076346,0.1495888 -0.061373,0.3452157 0.035208,0.4599958 0.086896,0.1032702 0.1689592,0.1272843 0.4365421,0.1277452 L 8.6788366,6.3675742 8.6786324,6.6228341 8.6784282,6.878094 8.1263422,7.1932013 C 7.1555218,7.7473048 6.6669987,8.0198019 6.6444427,8.0198019 c -0.018676,0 -0.2156707,-0.4511079 -0.3384628,-0.7750618 l -0.036942,-0.097463 0.049268,-0.00111 c 0.027097,-6.071e-4 0.173222,-0.00789 0.324721,-0.01619 0.2615302,-0.014321 0.2793583,-0.01779 0.3527228,-0.068631 C 7.2102261,6.9127139 7.2200691,6.5673659 7.014302,6.4104196 L 6.9459594,6.358292 H 6.0055693 5.0651792 l -0.069752,0.053202 c -0.088003,0.067123 -0.1364794,0.1463261 -0.151706,0.2478639 -0.038225,0.2549044 0.095797,0.4336832 0.3449038,0.4600828 0.2381673,0.02524 0.1999153,-0.016383 0.3604789,0.3922523 0.078606,0.200053 0.1403685,0.3662846 0.1372497,0.3694036 -0.00312,0.00312 -0.076677,-0.0027 -0.1634627,-0.01294 -0.350298,-0.041316 -0.7440948,0.02368 -1.063312,0.1754998 C 4.2640479,8.1366508 4.0256885,8.3095492 3.8970525,8.4516954 3.7679647,8.5943407 3.609719,8.8432453 3.5297101,9.0294876 3.4266178,9.2694627 3.4019487,9.4090986 3.3997947,9.7648514 c -0.00161,0.2654316 0.00385,0.3273716 0.040902,0.4641086 0.050774,0.187388 0.171626,0.450541 0.2823889,0.6149 0.1022267,0.151693 0.3277721,0.377238 0.4794646,0.479465 0.2281576,0.153757 0.5654659,0.287785 0.8098257,0.32178 0.1340231,0.01865 0.4627001,0.01108 0.6055509,-0.01394 z"
       id="path1052" />
    <path
       style="fill:#444444;stroke-width:0.0185644;fill-opacity:1"
       d="m 1.3876476,9.2979309 0.00468,-4.458257 1.0303218,-0.5879817 C 3.8955371,3.4111478 6.741708,1.7913317 7.2169546,1.5231514 L 7.6207904,1.295268 8.1266081,1.5787521 c 0.5504788,0.3085143 3.4436879,1.9532284 4.8637999,2.7649442 l 0.886448,0.5066808 V 9.3032825 13.756188 H 7.6299124 1.3829685 Z M 5.6179271,11.631168 C 6.4079838,11.492804 7.0323096,10.873158 7.1682107,10.092506 7.1891742,9.9720864 7.1951862,9.8551078 7.1888669,9.690594 7.1785125,9.4210312 7.1354266,9.2329295 7.0258706,8.978992 6.9854832,8.8853793 6.9524194,8.8031504 6.9523953,8.796261 c -7e-5,-0.019996 1.7812722,-1.0363601 1.8163889,-1.0363601 0.019482,0 0.2442108,0.2355511 0.2442108,0.255971 0,0.0073 -0.039554,0.034147 -0.087898,0.059655 C 8.6934281,8.1977652 8.3939548,8.4699995 8.2467173,8.6922029 8.13613,8.8590959 8.033367,9.0898227 7.9798154,9.2914603 c -0.043257,0.1628755 -0.049304,0.2209341 -0.049304,0.4733911 0,0.2526336 0.00603,0.3104016 0.049378,0.4733916 0.1785845,0.671419 0.7293763,1.206966 1.4162229,1.377022 0.1962943,0.0486 0.7102227,0.04378 0.9010807,-0.0085 0.354134,-0.09691 0.655582,-0.273748 0.897234,-0.526333 0.172358,-0.180156 0.262871,-0.310846 0.36228,-0.52309 C 11.947912,9.7221478 11.668459,8.7088884 10.903956,8.1906076 10.698193,8.0511142 10.408865,7.9353232 10.151824,7.8895991 L 10.018995,7.8659708 9.7395066,7.5855224 9.460018,7.3050742 9.4546377,6.5591907 c -0.00608,-0.842617 0.00442,-0.7834972 -0.1617043,-0.9109853 l -0.078617,-0.060334 -0.4951533,8.149e-4 c -0.6091615,0.001 -0.6583281,0.013527 -0.7487725,0.1907395 -0.076346,0.1495888 -0.061373,0.3452157 0.035208,0.4599958 0.086896,0.1032702 0.1689592,0.1272843 0.4365421,0.1277452 L 8.6788366,6.3675742 8.6786324,6.6228341 8.6784282,6.878094 8.1263422,7.1932013 C 7.1555218,7.7473048 6.6669987,8.0198019 6.6444427,8.0198019 c -0.018676,0 -0.2156707,-0.4511079 -0.3384628,-0.7750618 l -0.036942,-0.097463 0.049268,-0.00111 c 0.027097,-6.071e-4 0.173222,-0.00789 0.324721,-0.01619 0.2615302,-0.014321 0.2793583,-0.01779 0.3527228,-0.068631 C 7.2102261,6.9127139 7.2200691,6.5673659 7.014302,6.4104196 L 6.9459594,6.358292 H 6.0055693 5.0651792 l -0.069752,0.053202 c -0.088003,0.067123 -0.1364794,0.1463261 -0.151706,0.2478639 -0.038225,0.2549044 0.095797,0.4336832 0.3449038,0.4600828 0.2381673,0.02524 0.1999153,-0.016383 0.3604789,0.3922523 0.078606,0.200053 0.1403685,0.3662846 0.1372497,0.3694036 -0.00312,0.00312 -0.076677,-0.0027 -0.1634627,-0.01294 -0.350298,-0.041316 -0.7440948,0.02368 -1.063312,0.1754998 C 4.2640479,8.1366508 4.0256885,8.3095492 3.8970525,8.4516954 3.7679647,8.5943407 3.609719,8.8432453 3.5297101,9.0294876 3.4266178,9.2694627 3.4019487,9.4090986 3.3997947,9.7648514 c -0.00161,0.2654316 0.00385,0.3273716 0.040902,0.4641086 0.050774,0.187388 0.171626,0.450541 0.2823889,0.6149 0.1022267,0.151693 0.3277721,0.377238 0.4794646,0.479465 0.2281576,0.153757 0.5654659,0.287785 0.8098257,0.32178 0.1340231,0.01865 0.4627001,0.01108 0.6055509,-0.01394 z"
       id="path1091" />
  </g>
</svg>
